<?xml version="1.0" encoding="utf-8"?>
<!-- Generator: Adobe Illustrator 25.3.1, SVG Export Plug-In . SVG Version: 6.00 Build 0)  -->
<svg version="1.1" id="Layer_1" xmlns="http://www.w3.org/2000/svg" xmlns:xlink="http://www.w3.org/1999/xlink" x="0px" y="0px"
	 viewBox="0 0 400 125" style="enable-background:new 0 0 400 125;" xml:space="preserve">
<style type="text/css">
	.st0{fill:url(#SVGID_1_);}
	.st1{fill:#FFFFFF;}
</style>
<linearGradient id="SVGID_1_" gradientUnits="userSpaceOnUse" x1="85.5453" y1="109.2571" x2="17.5376" y2="34.1758">
	<stop  offset="0.1493" style="stop-color:#25C3EA"/>
	<stop  offset="0.4698" style="stop-color:#6ABD45"/>
	<stop  offset="0.8281" style="stop-color:#D5DF32"/>
</linearGradient>
<path class="st0" d="M77,88.5h-4.4l0,4.5H77L77,88.5z M25.1,52.3h-4.5v4.4h4.5V52.3z M56.2,26.8H51V32l5.3,0V26.8z M84.7,46.3
	l-4.3,0l0,4.3h4.3V46.3z M94.1,56.8l-5.4,0v5.4l5.4,0V56.8z M40.9,35.7H30.3v10.7l10.7,0V35.7z M68.2,26.6h-8.1v8.1h8.1V26.6z
	 M46.6,22.7h-8.3V31h8.3V22.7z M35.7,54.3v-4h-4v4H35.7z M25.5,71.2h-4v4h4V71.2z M90.1,99.5v4.1h4v-4.1H90.1z M26.1,19.3h-4.4v4.4
	h4.4V19.3z M33.6,25.3h-5.9v5.9l5.9,0V25.3z M37.9,16.9h-2.4v2.4h2.4V16.9z M60.9,66.8v-9.5l5.8-5.8h10.3V39.8l-11.6,0v10.3
	l-5.9,5.9h-9.5v9.5l-5.6,5.6h-5.6l0,6.9h6.9v-5.6l5.6-5.6H60.9z M78.6,57.2l-10.9,0v9.6l-4.9,4.9h-7.6v8.9h8.9V73L69,68h9.6V57.2z
	 M55.2,95l-4.8,4.8H46l0,5.7h5.7v-4.4l4.8-4.8h9V85.9H55.2L55.2,95z M38.5,90.3l-4.8,4.8h-9v10.3l10.3,0l0-9l4.8-4.8h4.3l0-5.7h-5.7
	V90.3z M10.3,66l-3.4,3.4H3.8v4l4,0v-3.1l3.4-3.4h6.4v-7.4h-7.4L10.3,66z M93.5,94.8v-9.1h-9.1l0,8l-4.3,4.3h-3.8v5h5V99l4.3-4.3
	L93.5,94.8z M80.9,74.9l4.3-4.3h3.8v-5h-5v3.8l-4.3,4.3l-8,0v9.1l9.1,0V74.9z M25.5,39.2v-3.5l-3.5,0v2.7l-3,3l-5.7,0l0,6.5h6.5
	l0-5.7l3-3H25.5z M29.4,67.5l8.9,0V60l9.4-9.4h12.3V37H46.4l0,12.2L37,58.7h-7.6V67.5z"/>
<path class="st1" d="M129.4,84.3c-7.2-6.9-1.9-6.9-1.7-11.2c0.1-4.2-3.4-5-3.4-5c1.5-3.6,1.7-4.5,1.7-4.5c-3.3-2.5-3.8-5.6-3.8-5.6
	c3.3-5,5.6-10.7,5.6-10.7s-21.6-6.9-29.7-12.1c-3.1-1.3-2.3-6-2.3-6C74.5,2.1,42.8,15.7,42.8,15.7v0.8c0,0,2.4,0.3,6.2,1.4l5.3,0
	v1.7c1.9,0.7,4.1,1.6,6.3,2.7h12.5l0,7.9c1.4,1.1,2.7,2.3,4,3.5H84l0,7.6c1.7,2.2,3.3,4.6,4.9,7.2c0.9,1.5,1.8,3,2.6,4.4h6.2v8.7
	l5,0v5.4l-2.5,0c0,0,0,5.8,0,8.6l-6.6,0v6.7h6.7V76h6.7v12.7h-5c1.2,17.7-3.2,30.5-3.2,30.5c2.7-7.5,9.8-13.7,19.6-17.2
	C127.6,98.6,136.6,91.2,129.4,84.3z M79.8,26.6h-3.2v-3.2h3.2V26.6z M94.6,41.5h-5.4V36h5.4V41.5z M105.8,70.3h-3.1v-3.1l3.1,0V70.3
	z M114.4,96.1h-5.7v-5.7h5.7V96.1z"/>
<g>
	<path class="st1" d="M167.2,7.1h19.7v58.2h-19.7V7.1z"/>
	<path class="st1" d="M243.5,41.5l17.3,4.8c-1.2,4.4-3,8.1-5.5,11.1c-2.5,3-5.6,5.2-9.3,6.7c-3.7,1.5-8.4,2.3-14.1,2.3
		c-6.9,0-12.6-0.9-17-2.8c-4.4-1.8-8.2-5.1-11.4-9.7c-3.2-4.6-4.8-10.6-4.8-17.8c0-9.6,2.8-17,8.4-22.2c5.6-5.2,13.5-7.8,23.8-7.8
		c8,0,14.3,1.5,18.9,4.4c4.6,3,8,7.5,10.2,13.7l-17.4,3.5c-0.6-1.8-1.2-3.1-1.9-3.9c-1.1-1.4-2.5-2.4-4-3.2
		c-1.6-0.7-3.4-1.1-5.3-1.1c-4.5,0-7.9,1.6-10.3,4.9c-1.8,2.4-2.7,6.3-2.7,11.5c0,6.5,1.1,10.9,3.2,13.3c2.1,2.4,5.2,3.6,9,3.6
		c3.8,0,6.6-1,8.5-2.9C241.2,48,242.6,45.2,243.5,41.5z"/>
	<path class="st1" d="M270.3,7.1H290V51h30.7v14.3h-50.4V7.1z"/>
	<path class="st1" d="M330,65.3V7.1h32.8c6.1,0,10.7,0.5,14,1.4c3.2,1,5.8,2.7,7.8,5.3c2,2.6,3,5.7,3,9.4c0,3.2-0.8,6-2.3,8.4
		c-1.5,2.3-3.6,4.2-6.2,5.7c-1.7,0.9-4,1.7-6.9,2.3c2.3,0.7,4.1,1.4,5.1,2.1c0.7,0.5,1.8,1.5,3.2,3.1c1.4,1.6,2.3,2.8,2.8,3.6
		l9.5,16.9h-22.3l-10.5-17.8c-1.3-2.3-2.5-3.8-3.6-4.5c-1.4-0.9-3-1.4-4.8-1.4h-1.7v23.6H330z M349.8,30.7h8.3
		c0.9,0,2.6-0.3,5.2-0.8c1.3-0.2,2.4-0.8,3.2-1.8c0.8-1,1.2-2.1,1.2-3.4c0-1.9-0.7-3.3-2-4.3c-1.3-1-3.8-1.5-7.4-1.5h-8.7V30.7z"/>
</g>
<g>
	<path class="st1" d="M167.1,82h1.2v11.5h-1.2V82z"/>
	<path class="st1" d="M170.7,85h1.1v1.1h0c0.3-0.5,1.2-1.3,2.8-1.3c1.1,0,2,0.3,2.8,1c0.7,0.6,1.1,1.6,1.1,3v4.7h-1.1v-4.7
		c0-1.1-0.4-1.9-0.9-2.3c-0.6-0.6-1.4-0.7-1.9-0.7c-0.5,0-1.3,0.2-2,0.7c-0.5,0.5-0.8,1.2-0.8,2.3v4.7h-1.1V85z"/>
	<path class="st1" d="M181.7,86h-1.9v-1h1.9v-3h1.1v3h2.1v1h-2.1v7.5h-1.1V86z"/>
	<path class="st1" d="M186.9,89.6c0.1,1.7,1.7,3.1,3.5,3.1c1.6,0,2.8-1,3.2-2h1.2c-0.6,1.7-2.3,3-4.4,3c-2.5,0-4.7-1.9-4.7-4.5
		c0-2.4,2-4.4,4.7-4.5c2,0,3.4,1.1,4,2.2c0.6,0.9,0.7,1.9,0.7,2.7H186.9z M193.9,88.7c-0.4-2-2.1-2.9-3.5-2.9
		c-1.4,0-3.2,0.9-3.5,2.9H193.9z"/>
	<path class="st1" d="M196.9,85h1.1v1.2h0c0.5-1.2,1.6-1.4,2.5-1.4v1.2c-0.8,0.1-1.5,0.3-1.9,0.8c-0.4,0.5-0.6,1.1-0.6,1.8v5h-1.1
		V85z"/>
	<path class="st1" d="M202.1,85h1.1v1.1h0c0.3-0.5,1.2-1.3,2.8-1.3c1.1,0,2,0.3,2.8,1c0.7,0.6,1.1,1.6,1.1,3v4.7h-1.1v-4.7
		c0-1.1-0.4-1.9-0.9-2.3c-0.6-0.6-1.4-0.7-1.9-0.7c-0.5,0-1.3,0.2-1.9,0.7c-0.5,0.5-0.9,1.2-0.8,2.3v4.7h-1.1V85z"/>
	<path class="st1" d="M221.2,93.5h-1.1V92h0c-1,1.4-2.6,1.7-3.5,1.7c-2.8,0-4.8-2-4.8-4.5c0-2.3,1.9-4.5,4.8-4.5
		c1,0,2.5,0.3,3.5,1.7h0V85h1.1V93.5z M216.6,92.7c1.9,0,3.6-1.5,3.6-3.5c0-1.9-1.5-3.5-3.6-3.5c-2,0-3.7,1.4-3.7,3.5
		C212.9,91.2,214.4,92.7,216.6,92.7z"/>
	<path class="st1" d="M224.4,86h-1.9v-1h1.9v-3h1.1v3h2.1v1h-2.1v7.5h-1.1V86z"/>
	<path class="st1" d="M228.9,82h1.1v2h-1.1V82z M228.9,85h1.1v8.5h-1.1V85z"/>
	<path class="st1" d="M236.4,84.8c2.7,0,4.7,2.1,4.7,4.5c0,2.3-2,4.5-4.7,4.5c-2.6,0-4.7-2.1-4.7-4.4
		C231.8,86.6,234.1,84.8,236.4,84.8z M236.4,92.7c1.7,0,3.5-1.3,3.5-3.5c0-2.2-2-3.4-3.5-3.4c-1.6,0-3.5,1.3-3.5,3.5
		C232.9,91.3,234.6,92.7,236.4,92.7z"/>
	<path class="st1" d="M242.9,85h1.1v1.1h0c0.3-0.5,1.2-1.3,2.8-1.3c1.1,0,2,0.3,2.8,1c0.7,0.6,1.1,1.6,1.1,3v4.7h-1.1v-4.7
		c0-1.1-0.4-1.9-0.9-2.3c-0.6-0.6-1.4-0.7-1.9-0.7c-0.5,0-1.3,0.2-2,0.7c-0.5,0.5-0.8,1.2-0.8,2.3v4.7h-1.1V85z"/>
	<path class="st1" d="M262,93.5h-1.1V92h0c-1,1.4-2.6,1.7-3.5,1.7c-2.8,0-4.8-2-4.8-4.5c0-2.3,1.9-4.5,4.8-4.5c1,0,2.5,0.3,3.5,1.7
		h0V85h1.1V93.5z M257.3,92.7c1.9,0,3.6-1.5,3.6-3.5c0-1.9-1.5-3.5-3.6-3.5c-2,0-3.7,1.4-3.7,3.5C253.6,91.2,255.1,92.7,257.3,92.7z
		"/>
	<path class="st1" d="M264,82h1.1v11.5H264V82z"/>
	<path class="st1" d="M283.4,90.5c-1.3,2.3-3.6,3.2-5.6,3.2c-3.4,0-6.3-2.5-6.3-6c0-3.4,2.9-6,6.3-6c3.1,0,5.1,2.1,5.6,3.2H282
		c-1.3-1.9-3.5-2.1-4.2-2.1c-2.8,0-5.1,2.4-5.1,4.9c0,2.7,2.5,4.9,5.1,4.9c0.6,0,2.6-0.1,4.2-2.2H283.4z"/>
	<path class="st1" d="M289.5,84.8c2.7,0,4.7,2.1,4.7,4.5c0,2.3-2,4.5-4.7,4.5c-2.6,0-4.7-2.1-4.7-4.4
		C284.8,86.6,287.1,84.8,289.5,84.8z M289.5,92.7c1.7,0,3.5-1.3,3.5-3.5c0-2.2-2-3.4-3.5-3.4c-1.6,0-3.5,1.3-3.5,3.5
		C285.9,91.3,287.6,92.7,289.5,92.7z"/>
	<path class="st1" d="M295.9,85h1.1v1.1h0c0.3-0.5,1.2-1.3,2.8-1.3c1.1,0,2,0.3,2.8,1c0.7,0.6,1.1,1.6,1.1,3v4.7h-1.1v-4.7
		c0-1.1-0.4-1.9-0.9-2.3c-0.6-0.6-1.4-0.7-1.9-0.7c-0.5,0-1.3,0.2-1.9,0.7c-0.5,0.5-0.9,1.2-0.8,2.3v4.7h-1.1V85z"/>
	<path class="st1" d="M306.5,86h-1.4v-1h1.4c0-1.2,0.1-3.2,3.4-3.2v1c-2.3,0-2.3,1.4-2.3,2.2h2.3v1h-2.3v7.5h-1.1V86z"/>
	<path class="st1" d="M311.8,89.6c0.1,1.7,1.7,3.1,3.5,3.1c1.6,0,2.8-1,3.2-2h1.2c-0.6,1.7-2.3,3-4.4,3c-2.5,0-4.7-1.9-4.7-4.5
		c0-2.4,2-4.4,4.7-4.5c2,0,3.4,1.1,4,2.2c0.6,0.9,0.7,1.9,0.7,2.7H311.8z M318.8,88.7c-0.4-2-2.1-2.9-3.5-2.9
		c-1.4,0-3.2,0.9-3.5,2.9H318.8z"/>
	<path class="st1" d="M321.7,85h1.1v1.2h0c0.5-1.2,1.6-1.4,2.5-1.4v1.2c-0.8,0.1-1.5,0.3-1.9,0.8c-0.4,0.5-0.6,1.1-0.6,1.8v5h-1.1
		V85z"/>
	<path class="st1" d="M327.3,89.6c0.1,1.7,1.7,3.1,3.5,3.1c1.6,0,2.8-1,3.2-2h1.2c-0.6,1.7-2.3,3-4.4,3c-2.5,0-4.7-1.9-4.7-4.5
		c0-2.4,2-4.4,4.7-4.5c2,0,3.4,1.1,4,2.2c0.6,0.9,0.7,1.9,0.7,2.7H327.3z M334.3,88.7c-0.4-2-2.1-2.9-3.5-2.9
		c-1.4,0-3.2,0.9-3.5,2.9H334.3z"/>
	<path class="st1" d="M337.2,85h1.1v1.1h0c0.3-0.5,1.2-1.3,2.8-1.3c1.1,0,2,0.3,2.8,1c0.7,0.6,1.1,1.6,1.1,3v4.7h-1.1v-4.7
		c0-1.1-0.4-1.9-0.9-2.3c-0.6-0.6-1.4-0.7-1.9-0.7c-0.5,0-1.3,0.2-1.9,0.7c-0.5,0.5-0.9,1.2-0.8,2.3v4.7h-1.1V85z"/>
	<path class="st1" d="M356.1,91c-0.6,1.1-1.8,2.7-4.5,2.7c-2.8,0-4.8-2.1-4.8-4.5c0-2.5,2.1-4.5,4.8-4.5c1.6,0,3.6,0.7,4.5,2.8h-1.3
		c-0.7-1.3-2-1.8-3.2-1.8c-1.8,0-3.7,1.2-3.7,3.5c0,1.9,1.6,3.5,3.7,3.5c1.9,0,2.8-1.1,3.2-1.7H356.1z"/>
	<path class="st1" d="M358.5,89.6c0.1,1.7,1.7,3.1,3.5,3.1c1.6,0,2.8-1,3.2-2h1.2c-0.6,1.7-2.3,3-4.4,3c-2.5,0-4.7-1.9-4.7-4.5
		c0-2.4,2-4.4,4.6-4.5c2,0,3.4,1.1,4,2.2c0.6,0.9,0.7,1.9,0.7,2.7H358.5z M365.5,88.7c-0.4-2-2.1-2.9-3.5-2.9
		c-1.4,0-3.2,0.9-3.5,2.9H365.5z"/>
	<path class="st1" d="M379,81.8c3.4,0,6.4,2.6,6.4,6c0,3.4-3,6-6.4,6c-3.4,0-6.4-2.7-6.4-5.9C372.6,84.2,375.8,81.8,379,81.8z
		 M379,92.7c2.8,0,5.2-2.2,5.2-4.9c0-2.7-2.3-4.9-5.2-4.9c-2.7,0-5.2,2.1-5.2,5C373.8,90.4,376.2,92.7,379,92.7z"/>
	<path class="st1" d="M387.2,85h1.1v1.1h0c0.3-0.5,1.2-1.3,2.8-1.3c1.1,0,2,0.3,2.8,1c0.7,0.6,1.1,1.6,1.1,3v4.7h-1.1v-4.7
		c0-1.1-0.4-1.9-0.9-2.3c-0.6-0.6-1.4-0.7-1.9-0.7c-0.5,0-1.3,0.2-1.9,0.7c-0.5,0.5-0.9,1.2-0.8,2.3v4.7h-1.1V85z"/>
	<path class="st1" d="M167.2,100.7h1.2v10.5h5v1h-6.2V100.7z"/>
	<path class="st1" d="M175.3,108.4c0.1,1.7,1.7,3.1,3.5,3.1c1.6,0,2.8-1,3.2-2h1.2c-0.6,1.7-2.3,3-4.4,3c-2.5,0-4.7-1.9-4.7-4.5
		c0-2.4,2-4.4,4.7-4.5c2,0,3.4,1.1,4,2.2c0.6,0.9,0.7,1.9,0.7,2.7H175.3z M182.3,107.4c-0.4-2-2.1-2.9-3.5-2.9
		c-1.4,0-3.2,0.9-3.5,2.9H182.3z"/>
	<path class="st1" d="M194.3,112.2h-1.1v-1.5h0c-1,1.4-2.6,1.7-3.5,1.7c-2.8,0-4.8-2-4.8-4.5c0-2.3,1.9-4.5,4.8-4.5
		c1,0,2.5,0.3,3.5,1.7h0v-1.5h1.1V112.2z M189.6,111.4c1.9,0,3.6-1.5,3.6-3.5c0-1.9-1.5-3.5-3.6-3.5c-2,0-3.7,1.4-3.7,3.5
		C185.9,109.9,187.4,111.4,189.6,111.4z"/>
	<path class="st1" d="M196.4,103.7h1.1v1.2h0c0.5-1.2,1.6-1.4,2.5-1.4v1.2c-0.8,0.1-1.5,0.3-1.9,0.8c-0.4,0.5-0.6,1.1-0.6,1.8v5
		h-1.1V103.7z"/>
	<path class="st1" d="M201.6,103.7h1.1v1.1h0c0.3-0.5,1.2-1.3,2.8-1.3c1.1,0,2,0.3,2.8,1c0.7,0.6,1.1,1.6,1.1,3v4.7h-1.1v-4.7
		c0-1.1-0.4-1.9-0.9-2.3c-0.6-0.6-1.4-0.7-1.9-0.7c-0.5,0-1.3,0.2-1.9,0.7c-0.5,0.5-0.9,1.2-0.8,2.3v4.7h-1.1V103.7z"/>
	<path class="st1" d="M211.6,100.7h1.1v2h-1.1V100.7z M211.6,103.7h1.1v8.5h-1.1V103.7z"/>
	<path class="st1" d="M214.9,103.7h1.1v1.1h0c0.3-0.5,1.2-1.3,2.8-1.3c1.1,0,2,0.3,2.8,1c0.7,0.6,1.1,1.6,1.1,3v4.7h-1.1v-4.7
		c0-1.1-0.4-1.9-0.9-2.3c-0.6-0.6-1.4-0.7-1.9-0.7c-0.5,0-1.3,0.2-1.9,0.7c-0.5,0.5-0.9,1.2-0.8,2.3v4.7h-1.1V103.7z"/>
	<path class="st1" d="M233.8,110.9c0,0.9,0,2.1-0.8,3.1c-1.1,1.5-3.2,1.6-3.6,1.6c-1.3,0-3.8-0.5-4.6-3.1h1.2
		c0.3,0.7,1.2,2.2,3.4,2.2c1.5,0,3.2-0.8,3.2-3.2v-0.7h0c-0.7,1.2-2.1,1.8-3.5,1.8c-2.4,0-4.7-1.7-4.7-4.4c0-2.7,2.3-4.5,4.7-4.5
		c0.8,0,2.4,0.2,3.5,1.7h0v-1.5h1.1V110.9z M229.1,111.4c2.4,0,3.6-2,3.6-3.5c0-1.9-1.5-3.5-3.6-3.5c-2,0-3.5,1.6-3.5,3.5
		C225.6,109.8,227.1,111.4,229.1,111.4z"/>
	<path class="st1" d="M240.5,100.7h3.1c1.6,0,2.4,0.2,3,0.4c1.4,0.6,2.2,1.9,2.2,3.3c0,1.7-1.3,3.4-3.6,3.5l3.4,4.3h-1.5l-4.1-5.2
		c1.5,0,2.1,0,2.6-0.2c1.3-0.4,2-1.4,2-2.4c0-0.9-0.5-1.8-1.3-2.2c-0.7-0.4-1.3-0.4-2.4-0.4h-2.1v10.5h-1.2V100.7z"/>
	<path class="st1" d="M251.1,108.4c0.1,1.7,1.7,3.1,3.5,3.1c1.6,0,2.8-1,3.2-2h1.2c-0.6,1.7-2.3,3-4.4,3c-2.5,0-4.7-1.9-4.7-4.5
		c0-2.4,2-4.4,4.7-4.5c2,0,3.4,1.1,4,2.2c0.6,0.9,0.7,1.9,0.7,2.7H251.1z M258.1,107.4c-0.4-2-2.1-2.9-3.5-2.9
		c-1.4,0-3.2,0.9-3.5,2.9H258.1z"/>
	<path class="st1" d="M261,103.7h1.1v1.5h0c1-1.4,2.5-1.7,3.5-1.7c2.9,0,4.8,2.2,4.8,4.5c0,2.4-2,4.5-4.8,4.5
		c-0.9,0-2.5-0.3-3.5-1.7h0v4.5H261V103.7z M265.7,104.5c-2.1,0-3.6,1.6-3.6,3.5c0,2,1.7,3.5,3.6,3.5c2.2,0,3.7-1.6,3.7-3.5
		C269.4,105.8,267.7,104.5,265.7,104.5z"/>
	<path class="st1" d="M272.2,103.7h1.1v1.2h0c0.5-1.2,1.6-1.4,2.5-1.4v1.2c-0.8,0.1-1.5,0.3-1.9,0.8c-0.4,0.5-0.6,1.1-0.6,1.8v5
		h-1.1V103.7z"/>
	<path class="st1" d="M277.8,108.4c0.1,1.7,1.7,3.1,3.5,3.1c1.6,0,2.8-1,3.2-2h1.2c-0.6,1.7-2.3,3-4.4,3c-2.5,0-4.7-1.9-4.7-4.5
		c0-2.4,2-4.4,4.6-4.5c2,0,3.4,1.1,4,2.2c0.6,0.9,0.7,1.9,0.7,2.7H277.8z M284.8,107.4c-0.4-2-2.1-2.9-3.5-2.9
		c-1.4,0-3.2,0.9-3.5,2.9H284.8z"/>
	<path class="st1" d="M288.2,109.7c0,1.6,1.2,1.7,1.6,1.7c1.1,0,1.7-0.6,1.7-1.5c0-1.2-1.1-1.4-1.8-1.7c-0.9-0.3-2.4-0.8-2.4-2.4
		c0-1.2,0.9-2.4,2.6-2.4c1.3,0,2.5,1,2.4,2.3h-1.1c-0.1-1-0.8-1.3-1.3-1.3c-0.9,0-1.4,0.7-1.4,1.3c0,0.9,0.9,1.2,1.6,1.4
		c1,0.3,2.6,0.9,2.6,2.6c0,1.5-0.9,2.6-2.8,2.6c-1.2,0-2.8-0.8-2.8-2.7H288.2z"/>
	<path class="st1" d="M294.8,108.4c0.1,1.7,1.7,3.1,3.5,3.1c1.6,0,2.8-1,3.2-2h1.2c-0.6,1.7-2.3,3-4.4,3c-2.5,0-4.7-1.9-4.7-4.5
		c0-2.4,2-4.4,4.7-4.5c2,0,3.4,1.1,4,2.2c0.6,0.9,0.7,1.9,0.7,2.7H294.8z M301.8,107.4c-0.4-2-2.1-2.9-3.5-2.9
		c-1.4,0-3.2,0.9-3.5,2.9H301.8z"/>
	<path class="st1" d="M304.7,103.7h1.1v1.1h0c0.3-0.5,1.2-1.3,2.8-1.3c1.1,0,2,0.3,2.8,1c0.7,0.6,1.1,1.6,1.1,3v4.7h-1.1v-4.7
		c0-1.1-0.4-1.9-0.9-2.3c-0.6-0.6-1.4-0.7-1.9-0.7c-0.5,0-1.3,0.2-2,0.7c-0.5,0.5-0.8,1.2-0.8,2.3v4.7h-1.1V103.7z"/>
	<path class="st1" d="M315.8,104.7h-1.9v-1h1.9v-3h1.1v3h2.1v1h-2.1v7.5h-1.1V104.7z"/>
	<path class="st1" d="M329.4,112.2h-1.1v-1.5h0c-1,1.4-2.6,1.7-3.5,1.7c-2.8,0-4.8-2-4.8-4.5c0-2.3,1.9-4.5,4.8-4.5
		c1,0,2.5,0.3,3.5,1.7h0v-1.5h1.1V112.2z M324.7,111.4c1.9,0,3.6-1.5,3.6-3.5c0-1.9-1.5-3.5-3.6-3.5c-2,0-3.7,1.4-3.7,3.5
		C321.1,109.9,322.5,111.4,324.7,111.4z"/>
	<path class="st1" d="M332.5,104.7h-1.9v-1h1.9v-3h1.1v3h2.1v1h-2.1v7.5h-1.1V104.7z"/>
	<path class="st1" d="M337,100.7h1.1v2H337V100.7z M337,103.7h1.1v8.5H337V103.7z"/>
	<path class="st1" d="M344.6,103.5c2.7,0,4.7,2.1,4.7,4.5c0,2.3-2,4.5-4.7,4.5c-2.6,0-4.7-2.1-4.7-4.4
		C339.9,105.3,342.2,103.5,344.6,103.5z M344.6,111.4c1.7,0,3.5-1.3,3.5-3.5c0-2.2-2-3.4-3.5-3.4c-1.6,0-3.5,1.3-3.5,3.5
		C341.1,110,342.8,111.4,344.6,111.4z"/>
	<path class="st1" d="M351,103.7h1.1v1.1h0c0.3-0.5,1.2-1.3,2.8-1.3c1.1,0,2,0.3,2.8,1c0.7,0.6,1.1,1.6,1.1,3v4.7h-1.1v-4.7
		c0-1.1-0.4-1.9-0.9-2.3c-0.6-0.6-1.4-0.7-1.9-0.7c-0.5,0-1.3,0.2-1.9,0.7c-0.5,0.5-0.9,1.2-0.8,2.3v4.7H351V103.7z"/>
	<path class="st1" d="M361.5,109.7c0,1.6,1.2,1.7,1.6,1.7c1.1,0,1.7-0.6,1.7-1.5c0-1.2-1.1-1.4-1.8-1.7c-0.9-0.3-2.4-0.8-2.4-2.4
		c0-1.2,0.9-2.4,2.6-2.4c1.3,0,2.5,1,2.4,2.3h-1.1c-0.1-1-0.8-1.3-1.3-1.3c-0.9,0-1.4,0.7-1.4,1.3c0,0.9,0.9,1.2,1.6,1.4
		c1,0.3,2.6,0.9,2.6,2.6c0,1.5-0.9,2.6-2.8,2.6c-1.2,0-2.8-0.8-2.8-2.7H361.5z"/>
</g>
<g>
	<g>
		<line class="st1" x1="166.9" y1="73.2" x2="393.7" y2="73.2"/>
		<path class="st1" d="M393.7,74.2H166.9c-0.5,0-1-0.4-1-1s0.4-1,1-1h226.9c0.5,0,1,0.4,1,1S394.3,74.2,393.7,74.2z"/>
	</g>
</g>
</svg>
